<svg width="9" height="6" viewBox="0 0 9 6" fill="none" xmlns="http://www.w3.org/2000/svg">
<path d="M8.93376 1.51079C8.93376 1.43936 8.89804 1.359 8.84447 1.30543L8.39804 0.859C8.34447 0.805429 8.26411 0.769714 8.19268 0.769714C8.12126 0.769714 8.0409 0.805429 7.98733 0.859L4.4784 4.36793L0.969469 0.859C0.915898 0.805429 0.835541 0.769714 0.764112 0.769714C0.683755 0.769714 0.612327 0.805429 0.558755 0.859L0.112327 1.30543C0.0587551 1.359 0.0230408 1.43936 0.0230408 1.51079C0.0230408 1.58221 0.0587551 1.66257 0.112327 1.71614L4.27304 5.87686C4.32661 5.93043 4.40697 5.96614 4.4784 5.96614C4.54983 5.96614 4.63018 5.93043 4.68376 5.87686L8.84447 1.71614C8.89804 1.66257 8.93376 1.58221 8.93376 1.51079Z" fill="black"/>
</svg>
